<svg width="151" height="130" viewBox="0 0 151 130" fill="none" xmlns="http://www.w3.org/2000/svg">
<g id="Group">
<path id="Vector" d="M103.969 38.1964C102.245 23.126 98.5819 10.2563 94.8965 0.230331C88.7314 1.37066 81.5621 2.30544 73.5196 2.66548C63.11 3.13025 53.8171 2.51754 46.077 1.54086C49.1118 6.51851 52.1583 12.2882 54.8396 18.8265C55.9551 21.5457 56.916 24.1786 57.7474 26.7054C56.5691 20.8911 55.3908 15.0769 54.2125 9.26264C58.1938 9.4708 62.3009 9.60958 66.5231 9.66456C74.7358 9.77192 82.5021 9.55197 89.7774 9.10422C91.8591 14.2769 93.8059 19.8071 95.5184 25.6829C102.359 49.1585 103.129 70.2029 101.871 86.7946C104.322 74.8362 106.25 58.1371 103.969 38.1951V38.1964Z" fill="#60C7CA"/>
<path id="Vector_2" d="M113.499 14.4627C108.473 13.435 104.044 12.0917 100.277 10.7118C100.891 12.8249 101.505 14.9367 102.121 17.0498C105.118 18.1089 108.519 19.138 112.293 20.0034C116.001 20.8543 119.452 21.4055 122.564 21.759C121.192 34.4401 118.375 50.0944 112.596 67.3761C107.927 81.335 102.388 93.1822 97.1221 102.806C106.884 89.4025 118.701 69.4015 125.442 43.1229C127.918 33.4726 129.333 24.4416 130.086 16.3061C125.367 16.2119 119.739 15.7366 113.499 14.4614V14.4627Z" fill="#00B4B7"/>
<path id="Vector_3" d="M138.693 40.7141C135.771 38.9218 133.04 37.1164 130.495 35.3306C129.915 37.445 129.336 39.5607 128.756 41.6751C131.565 43.9989 134.828 46.3922 138.581 48.6715C140.044 49.5605 141.483 50.3722 142.884 51.1119C136.922 62.9211 127.963 77.6275 114.596 92.4675C106.172 101.819 97.7422 109.29 90.1644 115.175C100.239 109.161 114.322 99.172 127.687 83.4719C139.028 70.148 146.11 57.1094 150.5 47.2824C146.748 45.3998 142.786 43.2252 138.692 40.7154L138.693 40.7141Z" fill="#02969C"/>
<path id="Vector_4" d="M125.027 89.6565C124.117 90.5233 123.186 91.369 122.237 92.1925C110.883 112.019 89.6689 120.642 65.2729 119.549C30.5158 117.991 7.46365 92.9433 9.02293 58.1849C10.1148 33.8347 20.4673 13.2571 41.17 3.69977C18.3044 13.0751 1.74805 35.0569 0.567134 61.3683C-1.05237 97.4883 26.9165 128.083 63.0365 129.703C92.1575 131.008 117.686 113.082 127.335 87.1573C126.631 88.0645 125.861 88.8632 125.027 89.6565Z" fill="#F89A23"/>
<path id="Vector_5" d="M85.8179 67.4774C84.7604 65.2229 83.2434 63.3022 81.306 61.7642C79.49 60.324 77.3193 59.1492 74.8538 58.2734C73.3913 57.7538 71.8128 57.276 70.1519 56.8528V55.3148H86.3962L86.1098 51.6019C85.6991 46.2616 83.7994 41.9327 80.4664 38.7325C77.8221 36.1958 74.3551 34.4916 70.1519 33.6618V27.503H58.4028V33.5529C56.7293 33.8727 55.148 34.3281 53.6925 34.9092C51.2619 35.8815 49.1498 37.1959 47.4149 38.8177C45.6255 40.4897 44.2412 42.5096 43.3011 44.8201C42.382 47.0788 41.9168 49.5918 41.9168 52.2892C41.9168 55.2911 42.4714 57.9423 43.5651 60.1676C44.6449 62.3676 46.1522 64.2632 48.0421 65.7998C49.8245 67.2483 51.9059 68.4371 54.2261 69.3311C55.5531 69.8437 56.9542 70.3005 58.4028 70.693V77.127C58.0675 76.3141 57.8496 75.3279 57.7504 74.1782L57.478 71.0255H40.2266L40.4627 74.6965C40.675 77.9959 41.3203 80.9279 42.3806 83.4102C43.4757 85.9791 44.9774 88.1694 46.8436 89.9183C48.7042 91.6643 50.9518 93.0193 53.5221 93.9454C55.0321 94.4902 56.6706 94.9163 58.4014 95.218V101.332H70.1505V95.2459C71.8393 94.9484 73.4527 94.5 74.9558 93.9105C77.4799 92.9201 79.6926 91.533 81.5336 89.7883C83.3999 88.0185 84.861 85.8883 85.8765 83.4563C86.8809 81.0481 87.3908 78.3423 87.3908 75.4173C87.3908 72.4922 86.8613 69.7068 85.8165 67.4774H85.8179Z" fill="#FAA31B"/>
<path id="Vector_6" d="M82.6942 68.94C81.8616 67.1659 80.6841 65.6741 79.1615 64.4658C77.6375 63.2575 75.8173 62.2755 73.6969 61.5212C71.5778 60.7669 69.245 60.1243 66.7027 59.5893V45.506C70.0622 46.2282 71.8837 48.3486 72.1659 51.8646H82.6704C82.324 47.375 80.7944 43.8255 78.0775 41.219C75.3606 38.6124 71.5694 37.0898 66.7027 36.6498V30.9505H61.8514V36.5562C59.3076 36.7769 57.0154 37.2937 54.9745 38.1109C52.9323 38.9281 51.1988 40.0037 49.7698 41.3377C48.3408 42.6731 47.2498 44.2655 46.4955 46.1192C45.7426 47.9729 45.3654 50.0291 45.3654 52.2892C45.3654 54.7701 45.7971 56.8905 46.6603 58.6478C47.5236 60.4065 48.7095 61.8983 50.2168 63.122C51.724 64.3471 53.4743 65.3444 55.469 66.1127C57.4624 66.8824 59.5912 67.5026 61.8514 67.9733V83.3292C59.4334 82.9842 57.6272 82.0581 56.4343 80.5508C55.2399 79.0436 54.5345 77.0181 54.3152 74.4744H43.9057C44.0943 77.3953 44.6432 79.9222 45.554 82.0581C46.4648 84.1939 47.6814 85.9763 49.204 87.4039C50.7266 88.8329 52.5551 89.9323 54.691 90.7005C56.8254 91.4702 59.2127 91.9647 61.85 92.184V97.8833H66.7013V92.184C69.245 92.0262 71.5764 91.5317 73.6955 90.7005C75.8145 89.8694 77.6361 88.7309 79.1601 87.2852C80.6827 85.8408 81.8602 84.1212 82.6928 82.1279C83.5239 80.1346 83.9416 77.8968 83.9416 75.4159C83.9416 72.935 83.5253 70.714 82.6928 68.9386L82.6942 68.94ZM61.8514 58.3656C60.0927 57.8641 58.6874 57.1406 57.6356 56.1991C56.5837 55.2576 56.0571 53.8439 56.0571 51.9595C56.0571 48.255 57.989 46.0717 61.8514 45.4124V58.3656ZM71.6016 81.0216C70.5651 82.2774 68.9321 83.047 66.7027 83.3292V69.2459C69.0578 69.8745 70.7215 70.6987 71.6952 71.7184C72.6674 72.7395 73.1549 74.1294 73.1549 75.8867C73.1549 78.0532 72.6366 79.7658 71.6002 81.0216H71.6016Z" fill="#FFD981"/>
<path id="Vector_7" d="M16.6936 32.6152C14.0411 38.0759 9.10926 50.2386 11.0731 65.6612C14.2951 90.9605 33.538 105.12 37.2103 107.719C38.7094 105.807 40.2085 103.896 41.7075 101.983C37.8191 99.1196 32.6084 94.6944 27.6557 88.3277C24.5306 84.311 19.5307 74.2881 16.6936 61.5939C13.6693 48.0618 17.4381 36.6805 19.25 30.9121L16.6936 32.6152Z" fill="#FFF4CF"/>
<path id="Vector_8" d="M45.147 103.879C43.6794 105.784 42.2117 107.688 40.7441 109.593C42.4631 110.865 44.8681 112.361 47.9579 113.528C50.0029 114.3 51.8882 114.754 53.4854 115.027C54.4844 112.591 55.4846 110.155 56.4835 107.72C54.7318 107.221 52.9185 106.662 51.0503 106.034C48.9791 105.337 47.0113 104.614 45.1483 103.879H45.147Z" fill="#FFF4CF"/>
</g>
</svg>
